#!OML:ASF Y:\EmotionMaleHayes\Project 1\Capture day 1\Session 1\Male1.ASF
:FULLY-SPECIFIED
:DEGREES
638
root 20.0183 16.5536 0.627245 497.913 96.2371 498.29
lowerback 3.51078 4.37033 2.98585
upperback 0.289471 5.93509 -0.721896
thorax -1.28394 2.95065 -2.65574
lowerneck -22.9933 -1.3708 -0.227134
upperneck 15.4069 -1.85723 0.315476
head 8.56835 -0.851291 -0.111187
rclavicle -6.21699e-014 7.15625e-015
rhumerus -27.5378 23.0116 -95.9016
rradius 52.7807
rwrist -3.84387
rhand -7.1992 -31.7049
rfingers 7.12502
rthumb 18.6792 -60.8281
lclavicle -6.21699e-014 7.15625e-015
lhumerus -47.2496 0.232498 82.6914
lradius 26.6646
lwrist -8.86834
lhand -8.73925 -22.299
lfingers 7.12502
lthumb 17.1974 6.96001
rfemur 23.5838 3.88532 26.0494
rtibia 11.0066
rfoot -20.9796 1.47298
rtoes 2.22286
lfemur -15.7321 5.5097 -10.599
ltibia 5.29261
lfoot 3.37001 9.4216
ltoes 5.70676
639
root 20.1631 16.5691 0.608254 501.284 96.1904 501.633
lowerback 3.39735 4.45357 2.61681
upperback 0.252073 6.02683 -0.87708
thorax -1.27416 2.99807 -2.60637
lowerneck -22.8667 -1.40561 -0.388722
upperneck 15.2464 -1.9141 0.620412
head 8.4973 -0.854759 0.0125258
rclavicle 9.61621e-015 0
rhumerus -28.1116 22.4181 -96.2479
rradius 52.5147
rwrist -3.52499
rhand -7.22307 -31.5782
rfingers 7.12502
rthumb 18.6563 -60.7035
lclavicle 9.61621e-015 0
lhumerus -46.9304 0.0575428 82.6135
lradius 26.4892
lwrist -9.19382
lhand -8.55583 -22.2344
lfingers 7.12502
lthumb 17.374 7.00908
rfemur 23.6479 4.52387 25.9101
rtibia 11.7363
rfoot -20.5353 1.00545
rtoes 1.30839
lfemur -15.5099 6.2419 -11.0106
ltibia 5.84138
lfoot 3.24076 8.7135
ltoes 4.2442
640
root 20.3025 16.5956 0.586296 502.743 95.6208 503.26
lowerback 3.55516 4.30216 2.12027
upperback 0.29956 5.80747 -1.06855
thorax -1.3564 2.89065 -2.53327
lowerneck -23.4237 -1.39862 -0.302028
upperneck 15.6834 -1.94395 0.658881
head 8.74102 -0.854729 0.00228604
rclavicle 1.50331e-014 -7.15625e-015
rhumerus -28.5555 22.1752 -96.6046
rradius 52.1029
rwrist -3.40721
rhand -7.58764 -31.378
rfingers 7.12502
rthumb 18.3056 -60.5366
lclavicle 1.50331e-014 -7.15625e-015
lhumerus -46.4687 0.0236586 82.4803
lradius 26.1964
lwrist -9.63465
lhand -8.53604 -22.1557
lfingers 7.12502
lthumb 17.393 7.08611
rfemur 23.9303 4.99778 25.7599
rtibia 12.4272
rfoot -19.9555 0.1616
rtoes 1.03776
lfemur -15.2165 6.41692 -11.7349
ltibia 6.44422
lfoot 2.91995 7.72834
ltoes 3.92808
641
root 20.446 16.6192 0.562294 505.696 95.2971 506.314
lowerback 3.57927 4.19942 1.65329
upperback 0.317178 5.65129 -1.22761
thorax -1.3897 2.81523 -2.4344
lowerneck -23.693 -1.23575 -0.189727
upperneck 15.9153 -1.77182 0.707595
head 8.86544 -0.758966 0.0228055
rclavicle 1.28216e-014 6.36111e-015
rhumerus -29.0172 22.2195 -97.0025
rradius 51.5885
rwrist -3.5049
rhand -8.26147 -31.1692
rfingers 7.12502
rthumb 17.6572 -60.3874
lclavicle 1.28216e-014 6.36111e-015
lhumerus -45.9758 0.131565 82.2797
lradius 25.7314
lwrist -10.1184
lhand -8.86003 -22.4296
lfingers 7.12502
lthumb 17.0812 6.8395
rfemur 24.0355 5.51356 25.5548
rtibia 13.2847
rfoot -19.1722 -0.349781
rtoes 2.0895
lfemur -14.8078 6.44929 -12.3707
ltibia 6.82342
lfoot 2.76278 7.13678
ltoes 5.83722
642
root 20.5963 16.6423 0.535217 509.252 95.0368 509.898
lowerback 3.42648 4.15688 1.22747
upperback 0.318997 5.57574 -1.39004
thorax -1.33084 2.78104 -2.35016
lowerneck -23.6528 -1.11432 -0.212544
upperneck 15.8948 -1.63449 0.877732
head 8.85296 -0.676563 0.104838
rclavicle -3.78436e-014 -7.95139e-015
rhumerus -29.5195 21.885 -97.3235
rradius 51.0581
rwrist -3.34372
rhand -8.6722 -31.1135
rfingers 7.12502
rthumb 17.262 -60.3668
lclavicle -3.78436e-014 -7.95139e-015
lhumerus -45.4858 0.0803496 82.1689
lradius 25.4217
lwrist -10.339
lhand -8.86808 -22.5855
lfingers 7.12502
lthumb 17.0734 6.68426
rfemur 24.0386 5.77654 25.1301
rtibia 14.2297
rfoot -18.3522 -0.563113
rtoes 2.1753
lfemur -14.3468 6.24992 -13.0626
ltibia 7.06211
lfoot 2.78521 6.7116
ltoes 7.5075
